<svg width="24" height="16" viewBox="0 0 24 16" fill="none" xmlns="http://www.w3.org/2000/svg">
<path d="M12.015 2.28571C16.766 2.28571 20.078 5.728 21.519 7.584C20.118 9.68343 16.806 13.7143 12.015 13.7143C7.595 13.7143 4.085 9.67314 2.537 7.53486C4.03 5.65257 7.354 2.28571 12.015 2.28571ZM12.015 0C4.446 0 0 7.48686 0 7.48686C0 7.48686 4.835 16 12.015 16C19.748 16 24 7.48686 24 7.48686C24 7.48686 19.709 0 12.015 0ZM12 5.71429C13.103 5.71429 14 6.73943 14 8C14 9.26057 13.103 10.2857 12 10.2857C10.897 10.2857 10 9.26057 10 8C10 6.73943 10.897 5.71429 12 5.71429ZM12 3.42857C9.791 3.42857 8 5.47657 8 8C8 10.5246 9.791 12.5714 12 12.5714C14.209 12.5714 16 10.5246 16 8C16 5.47657 14.209 3.42857 12 3.42857Z" fill="#FFAF2A"/>
</svg>
