<svg width="17" height="19" viewBox="0 0 17 19" fill="none" xmlns="http://www.w3.org/2000/svg">
<path d="M7.39526 0.141458C3.56192 0.60161 0.478588 4.00674 0.0619213 8.14811C-0.438079 12.7496 2.14525 16.7069 5.81192 17.9954V15.8787C5.81192 15.8787 5.47859 15.9707 5.06192 15.9707C3.89526 15.9707 3.39525 14.8663 3.31192 14.2221C3.22859 13.854 3.06192 13.5779 2.81192 13.3018C2.56192 13.2098 2.47859 13.2098 2.47859 13.1178C2.47859 12.9337 2.72859 12.9337 2.81192 12.9337C3.31192 12.9337 3.72859 13.5779 3.89525 13.854C4.31192 14.5902 4.81192 14.7743 5.06192 14.7743C5.39526 14.7743 5.64526 14.6823 5.81192 14.5902C5.89526 13.946 6.14526 13.3018 6.64526 12.9337C4.72859 12.4735 3.31192 11.2771 3.31192 9.25248C3.31192 8.24014 3.72859 7.22781 4.31192 6.49156C4.22859 6.3075 4.14526 5.84735 4.14526 5.20313C4.14526 4.83501 4.14526 4.28283 4.39526 3.73065C4.39526 3.73065 5.56192 3.73065 6.72859 4.92704C7.14526 4.74298 7.72859 4.65095 8.31192 4.65095C8.89526 4.65095 9.47859 4.74298 9.97859 4.92704C11.0619 3.73065 12.3119 3.73065 12.3119 3.73065C12.4786 4.28283 12.4786 4.83501 12.4786 5.20313C12.4786 5.93938 12.3953 6.3075 12.3119 6.49156C12.8953 7.22781 13.3119 8.14811 13.3119 9.25248C13.3119 11.2771 11.8953 12.4735 9.97859 12.9337C10.4786 13.3938 10.8119 14.2221 10.8119 15.0504V18.0874C14.2286 16.891 16.6453 13.3938 16.6453 9.34451C16.6453 3.82268 12.3953 -0.502755 7.39526 0.141458Z" fill="#5D607C"/>
</svg>
