<svg width="24" height="24" viewBox="0 0 24 24" fill="none" xmlns="http://www.w3.org/2000/svg">
<path d="M19.9075 8.14366C19.9075 7.80007 20.186 7.52155 20.5296 7.52155C20.8732 7.52155 21.1517 7.80007 21.1517 8.14365V23.347C21.1517 23.6906 20.8732 23.9691 20.5296 23.9691C20.186 23.9691 19.9075 23.6906 19.9075 23.347V8.14366Z" fill="#FFAF2A"/>
<path d="M11.7333 1.56983C11.4455 1.33105 11.3767 0.88284 11.5797 0.568723C11.7826 0.254607 12.1805 0.193532 12.4683 0.432308L23.4788 9.56615C23.7667 9.80493 23.8355 10.2531 23.6325 10.5673C23.4295 10.8814 23.0317 10.9424 22.7438 10.7037L11.7333 1.56983Z" fill="#FFAF2A"/>
<path d="M11.6044 0.437985C11.8905 0.197542 12.2884 0.256103 12.493 0.568785C12.6977 0.881467 12.6317 1.32986 12.3456 1.57031L1.25929 10.8875C0.97319 11.1279 0.575332 11.0694 0.370649 10.7567C0.165967 10.444 0.231968 9.99559 0.518066 9.75515L11.6044 0.437985Z" fill="#FFAF2A"/>
<path d="M2.9032 11.4331C2.9032 11.0896 3.18173 10.811 3.52531 10.811C3.86889 10.811 4.14742 11.0896 4.14742 11.4331V23.347C4.14742 23.6906 3.86889 23.9691 3.52531 23.9691C3.18173 23.9691 2.9032 23.6906 2.9032 23.347V11.4331Z" fill="#FFAF2A"/>
<path d="M8.91687 16.3674C8.91687 16.0238 9.1954 15.7453 9.53898 15.7453C9.88256 15.7453 10.1611 16.0238 10.1611 16.3674V23.347C10.1611 23.6906 9.88256 23.9691 9.53898 23.9691C9.1954 23.9691 8.91687 23.6906 8.91687 23.347V16.3674Z" fill="#FFAF2A"/>
<path d="M13.8938 16.3674C13.8938 16.0238 14.1723 15.7453 14.5159 15.7453C14.8595 15.7453 15.138 16.0238 15.138 16.3674V23.347C15.138 23.6906 14.8595 23.9691 14.5159 23.9691C14.1723 23.9691 13.8938 23.6906 13.8938 23.347V16.3674Z" fill="#FFAF2A"/>
<path d="M20.4467 22.5623C20.836 22.5607 21.1527 22.8749 21.1539 23.2642C21.1552 23.6535 20.8407 23.9705 20.4514 23.9721L14.6033 23.997C14.214 23.9987 13.8973 23.6844 13.8961 23.2951C13.8948 22.9058 14.2093 22.5889 14.5986 22.5872L20.4467 22.5623Z" fill="#FFAF2A"/>
<path d="M9.45612 22.5623C9.84542 22.5607 10.1621 22.8749 10.1633 23.2642C10.1646 23.6535 9.8501 23.9705 9.4608 23.9721L3.61268 23.997C3.22338 23.9987 2.90675 23.6844 2.90546 23.2951C2.90417 22.9058 3.21871 22.5889 3.60801 22.5872L9.45612 22.5623Z" fill="#FFAF2A"/>
<path fill-rule="evenodd" clip-rule="evenodd" d="M8.91687 16.0363C8.91687 14.3184 10.3095 12.9258 12.0274 12.9258C13.7453 12.9258 15.138 14.3184 15.138 16.0363V16.8642C15.138 17.8818 14.6493 18.7853 13.8937 19.3528V16.4502V16.3328H13.8909C13.8371 15.2195 13.0234 14.3355 12.0274 14.3355C11.0315 14.3355 10.2177 15.2195 10.1639 16.3328H10.1611V16.4502V19.3528C9.40557 18.7853 8.91687 17.8818 8.91687 16.8642V16.0363Z" fill="#FFAF2A"/>
</svg>
