<svg width="16" height="16" viewBox="0 0 16 16" fill="none" xmlns="http://www.w3.org/2000/svg">
<ellipse cx="1.81888" cy="1.59191" rx="1.81888" ry="1.59191" fill="#5D607C"/>
<path d="M0.0307617 4.26306H3.6377V16H0.0307617V4.26306Z" fill="#5D607C"/>
<path d="M0.0307617 4.26306H3.6377V16H0.0307617V4.26306Z" fill="#5D607C"/>
<path d="M12.208 8.58008H15.9999V16H12.208V8.58008Z" fill="#5D607C"/>
<path d="M12.208 8.58008H15.9999V16H12.208V8.58008Z" fill="#5D607C"/>
<path d="M4.90186 4.26306H8.50879V16H4.90186V4.26306Z" fill="#5D607C"/>
<path d="M4.90186 4.26306H8.50879V16H4.90186V4.26306Z" fill="#5D607C"/>
<path fill-rule="evenodd" clip-rule="evenodd" d="M8.50876 11.8168C7.42049 11.044 6.7207 9.83922 6.7207 8.48566C6.7207 6.15358 8.79796 4.26306 11.3604 4.26306C13.9228 4.26306 16.0001 6.15358 16.0001 8.48566C16.0001 10.5542 14.3658 12.2754 12.2082 12.6379V8.68799V8.58008H12.2037C12.1371 7.78105 11.3364 7.15005 10.3585 7.15005C9.38053 7.15005 8.57985 7.78105 8.51324 8.58008H8.50876V8.68799V11.8168Z" fill="#5D607C"/>
</svg>
