<svg width="32" height="31" viewBox="0 0 32 31" fill="none" xmlns="http://www.w3.org/2000/svg">
<path d="M15.2912 1.85517C15.0298 1.34168 15.2365 0.718256 15.753 0.462709C16.2694 0.207161 16.9 0.416261 17.1614 0.929747L31.5267 29.1448C31.7881 29.6583 31.5814 30.2817 31.0649 30.5373C30.5485 30.7928 29.9179 30.5837 29.6565 30.0702L15.2912 1.85517Z" fill="#FFAF2A"/>
<path d="M6.65762 17.2736C6.92627 16.7639 7.5597 16.5637 8.07245 16.8264C8.58519 17.0891 8.78308 17.7152 8.51444 18.2248L2.34336 29.9321C2.07471 30.4417 1.44128 30.6419 0.928531 30.3793C0.415786 30.1166 0.217902 29.4905 0.486545 28.9808L6.65762 17.2736Z" fill="#FFAF2A"/>
<path d="M20.7566 16.7057C21.3263 16.7077 21.7864 17.1712 21.7843 17.7408C21.7822 18.3105 21.3187 18.7706 20.749 18.7686L7.62455 18.7215C7.05489 18.7195 6.59478 18.256 6.59689 17.6864C6.59899 17.1167 7.06249 16.6566 7.63216 16.6586L20.7566 16.7057Z" fill="#FFAF2A"/>
<path d="M21.6788 17.2047C21.9304 17.7233 21.7117 18.3429 21.1904 18.5886C20.6691 18.8344 20.0426 18.6133 19.791 18.0947L13.4124 4.94535C13.1608 4.4268 13.3795 3.80721 13.9008 3.56143C14.4221 3.31566 15.0486 3.53679 15.3002 4.05533L21.6788 17.2047Z" fill="#FFAF2A"/>
<path d="M11.1342 12.2884C10.8651 12.7978 10.2315 12.9975 9.71899 12.7344C9.20647 12.4712 9.00913 11.845 9.27822 11.3356L13.2295 3.85541C13.4986 3.346 14.1322 3.14635 14.6447 3.40947C15.1572 3.67259 15.3546 4.29884 15.0855 4.80825L11.1342 12.2884Z" fill="#FFAF2A"/>
</svg>
