<svg width="673" height="662" viewBox="0 0 673 662" fill="none" xmlns="http://www.w3.org/2000/svg">
<path d="M263.546 106.209C256.886 98.8075 257.548 87.4765 265.025 80.9009C272.503 74.3253 283.964 74.9952 290.625 82.3972L656.612 489.122C663.272 496.523 662.61 507.855 655.132 514.43C647.655 521.006 636.193 520.336 629.533 512.934L263.546 106.209Z" fill="#FFAF2A"/>
<path d="M188.389 402.196C190.594 392.488 200.272 386.312 210.006 388.404C219.74 390.495 225.843 400.061 223.638 409.77L172.992 632.793C170.787 642.502 161.109 648.677 151.375 646.585C141.641 644.494 135.538 634.928 137.742 625.219L188.389 402.196Z" fill="#FFAF2A"/>
<path d="M421.198 329.654C430.716 327.14 440.469 332.818 442.982 342.337C445.495 351.855 439.816 361.609 430.298 364.123L211.009 422.039C201.491 424.553 191.738 418.875 189.225 409.357C186.712 399.838 192.391 390.084 201.909 387.57L421.198 329.654Z" fill="#FFAF2A"/>
<path d="M438.82 333.862C445.338 341.392 444.459 352.713 436.856 359.147C429.254 365.581 417.807 364.692 411.289 357.162L246.001 166.197C239.483 158.667 240.362 147.346 247.964 140.912C255.566 134.478 267.013 135.367 273.531 142.897L438.82 333.862Z" fill="#FFAF2A"/>
<path d="M240.816 298.96C238.603 308.666 228.92 314.833 219.188 312.733C209.456 310.634 203.361 301.063 205.574 291.356L238.073 148.821C240.287 139.115 249.97 132.948 259.702 135.048C269.434 137.147 275.529 146.719 273.316 156.425L240.816 298.96Z" fill="#FFAF2A"/>
</svg>
