<svg width="24" height="24" viewBox="0 0 24 24" fill="none" xmlns="http://www.w3.org/2000/svg">
<path d="M2.10938 2.85938H21.8906C23.0523 2.85938 24 3.80606 24 4.96875V19.0312C24 20.19 23.0565 21.1406 21.8906 21.1406H2.10938C0.950624 21.1406 0 20.1971 0 19.0312V4.96875C0 3.81 0.943501 2.85938 2.10938 2.85938ZM2.40066 4.26562L11.9553 13.8203L21.5925 4.26562H2.40066ZM22.5938 18.7401V5.25323L15.8213 11.9676L22.5938 18.7401ZM21.5994 19.7344L14.8227 12.9577L12.4481 15.3118C12.1733 15.5843 11.7297 15.5835 11.4559 15.3097L9.14062 12.9944L2.40061 19.7344H21.5994ZM1.40625 18.74L8.14627 12L1.40625 5.25994V18.74Z" fill="#FFAF2A"/>
</svg>
