<svg width="25" height="24" viewBox="0 0 25 24" fill="none" xmlns="http://www.w3.org/2000/svg">
<path fill-rule="evenodd" clip-rule="evenodd" d="M12.0041 14.2115C15.7809 14.2115 18.8425 11.0301 18.8425 7.10574C18.8425 3.18135 15.7809 0 12.0041 0C8.22741 0 5.16577 3.18135 5.16577 7.10574C5.16577 11.0301 8.22741 14.2115 12.0041 14.2115ZM12.0041 12.4713C14.7789 12.4713 17.0282 10.134 17.0282 7.25074C17.0282 4.36752 14.7789 2.0302 12.0041 2.0302C9.22939 2.0302 6.98002 4.36752 6.98002 7.25074C6.98002 10.134 9.22939 12.4713 12.0041 12.4713Z" fill="#5D607C"/>
<rect x="0.00256348" y="22.2599" width="23.5156" height="1.74018" rx="0.870091" fill="#5D607C"/>
<path fill-rule="evenodd" clip-rule="evenodd" d="M12.3941 12.5423C17.586 13.0175 21.5886 17.4697 21.7407 22.8337C21.7543 23.3155 22.1214 23.7275 22.6024 23.7532C23.0835 23.7789 23.4959 23.4089 23.4878 22.927C23.4142 18.5833 21.1822 14.7344 17.8159 12.5599C16.8688 11.9481 15.7536 11.9802 14.6184 12.1305L14.5922 12.6598L12.3941 12.5423Z" fill="#5D607C"/>
<path fill-rule="evenodd" clip-rule="evenodd" d="M5.72394 14.9275L5.66553 14.9812C5.68494 14.9655 5.70441 14.9498 5.72394 14.9342V14.9275ZM4.54644 13.5885C1.96657 15.7036 0.242574 18.8936 0.0018276 22.5071C-0.030234 22.9884 0.363837 23.3801 0.846145 23.3801C1.32845 23.3801 1.71582 22.9883 1.75336 22.5075C1.96682 19.7734 3.17449 17.3309 5.0007 15.5699C5.04514 15.5271 5.09116 15.4841 5.13763 15.4406L5.13764 15.4406C5.47211 15.128 5.8291 14.7943 5.77649 14.3531C5.75556 14.1776 5.68503 14.0066 5.56349 13.8642C5.24365 13.4895 4.69172 13.4549 4.33071 13.7868L4.54644 13.5885ZM4.33071 13.7868C4.30504 13.8104 4.28103 13.8352 4.25869 13.8611C4.25749 13.8625 4.25534 13.8625 4.25416 13.8611C4.25312 13.8599 4.25323 13.8581 4.25441 13.857L4.33071 13.7868Z" fill="#5D607C"/>
</svg>
